<svg width="48" height="48" viewBox="0 0 48 48" fill="none" xmlns="http://www.w3.org/2000/svg">
<path d="M38 32V28C38 26.9391 37.5786 25.9217 36.8284 25.1716C36.0783 24.4214 35.0609 24 34 24C32.9391 24 31.9217 24.4214 31.1716 25.1716C30.4214 25.9217 30 26.9391 30 28V32M19 30H14C11.8783 30 9.84344 30.8429 8.34315 32.3431C6.84285 33.8434 6 35.8783 6 38V42" stroke="#EF9444" stroke-width="4" stroke-linecap="round" stroke-linejoin="round"/>
<path d="M20 22C24.4183 22 28 18.4183 28 14C28 9.58172 24.4183 6 20 6C15.5817 6 12 9.58172 12 14C12 18.4183 15.5817 22 20 22Z" stroke="#EF9444" stroke-width="4" stroke-linecap="round" stroke-linejoin="round"/>
<path d="M40.202 32H27.798C26.805 32 26 32.805 26 33.798V40.202C26 41.195 26.805 42 27.798 42H40.202C41.195 42 42 41.195 42 40.202V33.798C42 32.805 41.195 32 40.202 32Z" stroke="#EF9444" stroke-width="4" stroke-linecap="round" stroke-linejoin="round"/>
</svg>
