<svg width="72" height="16" viewBox="0 0 72 16" fill="none" xmlns="http://www.w3.org/2000/svg">
<g clip-path="url(#clip0_186_2418)">
<path d="M0 15.3789V1.3274H2.81811V13.0275H8.54955V15.3789H0ZM9.82769 15.3789V4.75971H12.6268V15.3789H9.82769ZM11.2368 3.03408C10.7417 3.03408 10.3482 2.90134 10.0562 2.63585C9.7642 2.35773 9.61824 1.98479 9.61824 1.51704C9.61824 1.06193 9.7642 0.69531 10.0562 0.417185C10.3482 0.139062 10.7417 0 11.2368 0C11.7064 0 12.0936 0.139062 12.3983 0.417185C12.7029 0.69531 12.8553 1.06193 12.8553 1.51704C12.8553 1.98479 12.7029 2.35773 12.3983 2.63585C12.0936 2.90134 11.7064 3.03408 11.2368 3.03408ZM14.6587 15.3789V4.75971H16.9437L17.1531 6.16295H17.2103C17.6799 5.70785 18.194 5.31595 18.7526 4.98726C19.3111 4.65857 19.9522 4.49423 20.6758 4.49423C21.8309 4.49423 22.6687 4.87348 23.1892 5.632C23.7097 6.37788 23.9699 7.42085 23.9699 8.76087V15.3789H21.1709V9.10221C21.1709 8.28052 21.0502 7.70529 20.8091 7.37658C20.5806 7.04793 20.1997 6.88354 19.6666 6.88354C19.2349 6.88354 18.8541 6.9847 18.5241 7.18695C18.2067 7.38926 17.8513 7.68633 17.4578 8.07821V15.3789H14.6587ZM25.905 15.3789V0.246519H28.666V9.3108H28.7422L32.379 4.75971H35.4447L31.7888 9.14013L35.7874 15.3789H32.7408L30.1512 10.9606L28.666 12.6862V15.3789H25.905ZM36.4447 15.3789V4.75971H38.7296L38.9391 6.16295H38.9962C39.4659 5.70785 39.98 5.31595 40.5385 4.98726C41.0971 4.65857 41.7382 4.49423 42.4617 4.49423C43.6169 4.49423 44.4547 4.87348 44.9752 5.632C45.4956 6.37788 45.7559 7.42085 45.7559 8.76087V15.3789H42.9568V9.10221C42.9568 8.28052 42.8362 7.70529 42.595 7.37658C42.3665 7.04793 41.9857 6.88354 41.4525 6.88354C41.0209 6.88354 40.6401 6.9847 40.3101 7.18695C39.9927 7.38926 39.6372 7.68633 39.2437 8.07821V15.3789H36.4447ZM52.337 15.6444C51.3469 15.6444 50.4519 15.4232 49.6522 14.9807C48.8525 14.5383 48.2114 13.8998 47.729 13.0655C47.2593 12.2311 47.0245 11.2324 47.0245 10.0693C47.0245 9.2097 47.1578 8.4385 47.4244 7.75584C47.7036 7.07317 48.0781 6.49166 48.5478 6.01124C49.0301 5.51823 49.5633 5.14528 50.1473 4.89245C50.7439 4.62697 51.3596 4.49423 51.9943 4.49423C52.9717 4.49423 53.7905 4.71546 54.4506 5.15793C55.1107 5.58775 55.6058 6.18825 55.9358 6.95939C56.2786 7.71791 56.45 8.59021 56.45 9.57628C56.45 9.82914 56.4372 10.0757 56.4119 10.3158C56.3865 10.5434 56.3548 10.7267 56.3167 10.8658H49.7474C49.8236 11.4347 49.9949 11.9151 50.2615 12.3069C50.5281 12.6989 50.8708 12.996 51.2898 13.1982C51.7087 13.3878 52.1847 13.4827 52.7179 13.4827C53.1494 13.4827 53.5557 13.4258 53.9365 13.312C54.3173 13.1856 54.7045 13.0023 55.098 12.7621L56.0501 14.4687C55.5296 14.8227 54.9457 15.1072 54.2983 15.3221C53.6509 15.537 52.9971 15.6444 52.337 15.6444ZM49.6903 8.98843H54.0507C54.0507 8.28052 53.8857 7.71791 53.5557 7.30073C53.2383 6.87092 52.7305 6.65599 52.0324 6.65599C51.6642 6.65599 51.3151 6.74452 50.9851 6.92147C50.655 7.08585 50.3758 7.34499 50.1473 7.69895C49.9188 8.04028 49.7665 8.47015 49.6903 8.98843ZM60.8495 15.6444C60.1384 15.6444 59.415 15.5054 58.6788 15.2272C57.9552 14.9491 57.3269 14.5952 56.7937 14.1653L58.0695 12.4018C58.5391 12.7558 59.0025 13.0402 59.4595 13.2551C59.929 13.4574 60.4181 13.5585 60.9257 13.5585C61.4588 13.5585 61.8462 13.4574 62.0872 13.2551C62.3413 13.0402 62.468 12.7684 62.468 12.4397C62.468 12.1742 62.3603 11.953 62.1443 11.776C61.9283 11.5864 61.6492 11.422 61.3065 11.2829C60.9638 11.1312 60.6085 10.9859 60.2402 10.8468C59.7957 10.6699 59.3516 10.4549 58.9073 10.2021C58.4757 9.94926 58.1139 9.62689 57.8219 9.23495C57.53 8.83044 57.384 8.33107 57.384 7.73687C57.384 7.10482 57.549 6.54855 57.8791 6.06813C58.2091 5.57511 58.6661 5.18953 59.25 4.9114C59.8469 4.63328 60.5514 4.49423 61.3636 4.49423C62.1378 4.49423 62.8233 4.62697 63.4201 4.89245C64.0294 5.15793 64.5501 5.46134 64.9815 5.80267L63.7248 7.49036C63.3439 7.21225 62.9631 6.99104 62.5823 6.82665C62.2139 6.66233 61.8331 6.58013 61.4398 6.58013C60.9447 6.58013 60.5829 6.67495 60.3544 6.86458C60.1259 7.05421 60.0117 7.30073 60.0117 7.60413C60.0117 7.85699 60.1069 8.07193 60.2973 8.24887C60.4877 8.41326 60.7478 8.55862 61.078 8.68502C61.4083 8.81148 61.757 8.94422 62.1253 9.08324C62.4805 9.2097 62.8298 9.36141 63.1726 9.53836C63.5278 9.70274 63.8515 9.90499 64.1437 10.1452C64.4358 10.3854 64.6643 10.6825 64.8291 11.0364C65.0071 11.3778 65.0957 11.7949 65.0957 12.288C65.0957 12.9075 64.9309 13.4764 64.6007 13.9947C64.2835 14.5004 63.8075 14.9049 63.1726 15.2083C62.5507 15.4991 61.776 15.6444 60.8495 15.6444ZM69.643 15.6444C68.8052 15.6444 68.1257 15.4801 67.6056 15.1514C67.085 14.8101 66.7107 14.3423 66.4822 13.7481C66.2537 13.154 66.1394 12.465 66.1394 11.6812V6.95939H64.6352V4.89245L66.2918 4.75971L66.6155 1.8963H68.9195V4.75971H71.5662V6.95939H68.9195V11.6622C68.9195 12.269 69.0462 12.7179 69.3003 13.0086C69.5538 13.2994 69.9156 13.4447 70.3856 13.4447C70.563 13.4447 70.7474 13.4195 70.9378 13.3689C71.1283 13.3183 71.2931 13.2678 71.4329 13.2172L71.909 15.2462C71.6168 15.3347 71.2806 15.4232 70.8998 15.5117C70.5314 15.6002 70.1125 15.6444 69.643 15.6444Z" fill="#1E293B"/>
</g>
<defs>
<clipPath id="clip0_186_2418">
<rect width="72" height="16" fill="white"/>
</clipPath>
</defs>
</svg>
