<svg width="128" height="128" viewBox="0 0 128 128" fill="none" xmlns="http://www.w3.org/2000/svg">
<path d="M59.3242 1.16895C74.3522 1.16895 87.8307 7.54517 96.9912 17.6358C97.8913 17.2255 98.8913 16.9954 99.9452 16.9954C103.856 16.9954 107.031 20.1447 107.075 24.0457C119.088 33.0475 126.831 47.1903 126.831 63.0941L126.827 63.7306C126.602 81.0106 117.236 96.145 103.223 104.76C95.72 117.98 82.0088 126.831 66.3379 126.831C58.8087 126.831 51.7316 124.788 45.5782 121.198C44.4219 122.007 43.0157 122.483 41.4977 122.483C37.5595 122.483 34.367 119.29 34.367 115.352C34.367 115.272 34.3684 115.193 34.371 115.114C15.3415 109.202 1.43691 91.1676 1.17294 69.7559L1.16895 69.1352C1.16897 58.9677 4.24425 49.5381 9.49201 41.7745C8.24795 40.491 7.48118 38.742 7.48118 36.8134C7.48124 33.2127 10.1501 30.2355 13.6176 29.7517C21.3843 12.9143 38.927 1.16895 59.3242 1.16895ZM92.1775 109.845C87.1767 111.458 81.8299 112.331 76.2739 112.331C73.9062 112.331 71.5765 112.172 69.2953 111.866C63.5505 114.903 57.1147 116.754 50.2934 117.103C55.1725 119.596 60.6229 120.986 66.3379 120.986C76.2956 120.986 85.4508 116.768 92.1775 109.845ZM29.7009 87.8822C30.911 95.865 34.3611 102.989 39.3093 108.565C39.999 108.343 40.7341 108.221 41.4977 108.221C43.9372 108.221 46.0893 109.447 47.375 111.316C47.5587 111.318 47.7427 111.32 47.927 111.32C51.9661 111.32 55.8762 110.712 59.5731 109.581C49.3322 106.092 40.5949 99.4841 34.5628 90.9262C32.8782 90.001 31.2553 88.984 29.7009 87.8822ZM9.62615 54.2586C7.93894 58.8771 7.01372 63.8884 7.01372 69.1352C7.01378 86.3901 17.0138 101.094 31.2426 107.657C26.4689 100.54 23.5925 91.9058 23.3904 82.5752C15.8447 75.0729 10.8196 65.214 9.62615 54.2586ZM102.627 73.1856C99.7838 77.9164 96.1262 82.1374 91.8379 85.6723C88.9021 93.8941 83.8417 101.063 77.3377 106.474C85.2006 106.297 92.5375 104.156 98.8686 100.55C101.783 94.9339 103.452 88.4603 103.452 81.5208C103.452 78.6534 103.166 75.866 102.627 73.1856ZM82.4512 91.7854C75.5363 95.2618 67.6693 97.228 59.3242 97.228C54.9874 97.228 50.7799 96.6961 46.7677 95.6978C52.709 100.772 60.0559 104.343 68.1947 105.781C73.9699 102.38 78.8737 97.567 82.4512 91.7854ZM105.113 29.931C107.803 35.829 109.297 42.3462 109.297 49.1986L109.293 49.8191C109.221 55.2218 108.221 60.409 106.44 65.2414C108.285 70.2936 109.297 75.7824 109.297 81.5208L109.293 82.1065C109.244 86.2323 108.67 90.2248 107.642 94.0151C115.893 86.1218 120.986 75.1524 120.986 63.0941C120.986 49.8475 114.84 37.9148 105.113 29.931ZM66.3379 42.0542C50.7906 42.0542 37.1982 52.3372 31.7551 67.1421C32.4295 74.1915 34.8469 80.7703 38.5942 86.455C44.7552 89.5959 51.8031 91.3832 59.3242 91.3832C69.788 91.3832 79.3354 87.9237 86.8529 82.1719C88.1417 78.073 88.8401 73.6929 88.8401 69.1352C88.8401 60.4499 86.3059 52.4112 81.9749 45.7312C77.2009 43.3675 71.8939 42.0542 66.3379 42.0542ZM91.9764 52.9903C93.7293 58.0361 94.6849 63.4711 94.6849 69.1352L94.6808 69.7559C94.6598 71.4743 94.5499 73.171 94.3576 74.842C96.7089 71.9062 98.6652 68.67 100.153 65.2087C98.1742 60.5773 95.3798 56.4409 91.9764 52.9903ZM41.3459 27.4955C33.9809 28.7269 27.2526 31.9916 21.7414 36.7255C21.7418 36.7547 21.7426 36.784 21.7426 36.8134C21.7426 40.4352 19.0423 43.4258 15.5451 43.883C15.3147 45.6259 15.1964 47.4002 15.1964 49.1986C15.1964 58.5837 18.4266 67.3105 23.9126 74.3627C24.3256 71.6186 24.9714 68.9564 25.8293 66.3993C25.7692 65.5161 25.7325 64.626 25.7209 63.7306L25.7169 63.0941C25.7169 49.0952 31.7154 36.4604 41.3459 27.4955ZM76.2739 19.7009C70.4841 19.7009 64.9643 20.7639 59.9034 22.6963C70.5613 25.589 79.7282 32.25 85.9715 41.2078C92.7912 44.9103 98.5489 50.4819 102.638 57.2802C103.172 54.6604 103.452 51.9581 103.452 49.1986C103.452 42.7922 101.946 36.6926 99.2461 31.2226C95.6358 30.8713 92.8146 27.8288 92.8146 24.1267C92.8146 23.6767 92.8561 23.2362 92.9361 22.8094C87.7957 20.8057 82.1748 19.7009 76.2739 19.7009ZM51.2974 27.093C42.0418 33.1576 35.2728 42.491 32.6998 53.3362C40.5699 42.9002 52.7129 36.2094 66.3379 36.2094C69.1094 36.2094 71.8202 36.4859 74.4457 37.0149C68.0895 31.4363 60.0682 27.8333 51.2974 27.093ZM59.3242 7.0137C41.6584 7.0137 26.6016 16.8718 19.5217 30.9811C27.3956 24.7866 37.2428 21.1056 47.927 21.1056C48.5518 21.1056 49.1739 21.1183 49.7928 21.1433C57.4943 16.5222 66.564 13.8562 76.2739 13.8562C79.0484 13.8562 81.7709 14.0744 84.4238 14.4932C77.3242 9.78581 68.6909 7.0137 59.3242 7.0137Z" fill="url(#paint0_linear_186_2416)"/>
<defs>
<linearGradient id="paint0_linear_186_2416" x1="64" y1="1.16895" x2="64" y2="126.831" gradientUnits="userSpaceOnUse">
<stop stop-color="#22C55E"/>
<stop offset="1" stop-color="#7C5CFF"/>
</linearGradient>
</defs>
</svg>
