<svg width="80" height="80" viewBox="0 0 80 80" fill="none" xmlns="http://www.w3.org/2000/svg">
<path d="M55.3003 25.2667L33.3337 47.2334L21.367 35.3001L16.667 40.0001L33.3337 56.6668L60.0003 30.0001L55.3003 25.2667ZM40.0003 6.66675C21.6003 6.66675 6.66699 21.6001 6.66699 40.0001C6.66699 58.4001 21.6003 73.3334 40.0003 73.3334C58.4003 73.3334 73.3337 58.4001 73.3337 40.0001C73.3337 21.6001 58.4003 6.66675 40.0003 6.66675ZM40.0003 66.6668C25.267 66.6668 13.3337 54.7334 13.3337 40.0001C13.3337 25.2667 25.267 13.3334 40.0003 13.3334C54.7337 13.3334 66.667 25.2667 66.667 40.0001C66.667 54.7334 54.7337 66.6668 40.0003 66.6668Z" fill="#0070F3"/>
</svg>
