<svg width="80" height="80" viewBox="0 0 80 80" fill="none" xmlns="http://www.w3.org/2000/svg">
<path d="M73.3332 33.3333V60H66.6665V33.3333H73.3332ZM66.6665 66.6666V73.3333H73.3332V66.6666H66.6665ZM59.9998 57.6333C57.4978 60.4717 54.4205 62.7452 50.9722 64.3027C47.5238 65.8602 43.7836 66.666 39.9998 66.6666C25.2998 66.6666 13.3332 54.7 13.3332 40C13.3332 25.3 25.2998 13.3333 39.9998 13.3333V43.3333L65.1665 18.1666C62.044 14.5544 58.1798 11.6574 53.8369 9.67293C49.4941 7.68845 44.7746 6.66308 39.9998 6.66664C21.5998 6.66664 6.6665 21.6 6.6665 40C6.6665 58.4 21.5998 73.3333 39.9998 73.3333C47.4998 73.3333 54.4332 70.8666 59.9998 66.6666V57.6333Z" fill="#0070F3"/>
</svg>
