<svg width="28" height="28" viewBox="0 0 28 28" fill="none" xmlns="http://www.w3.org/2000/svg">
<path d="M11.9793 24.5002C12.1841 24.8548 12.4787 25.1494 12.8334 25.3541C13.1881 25.5589 13.5904 25.6667 14 25.6667C14.4096 25.6667 14.8119 25.5589 15.1666 25.3541C15.5213 25.1494 15.8159 24.8548 16.0207 24.5002M25.6667 9.3335C25.6667 6.65016 24.7333 4.31683 23.3333 2.3335M4.66666 2.3335C3.26666 4.31683 2.33333 6.65016 2.33333 9.3335M3.80566 17.8805C3.65325 18.0475 3.55267 18.2553 3.51616 18.4784C3.47964 18.7016 3.50877 18.9306 3.59999 19.1375C3.6912 19.3444 3.84059 19.5203 4.02996 19.6439C4.21933 19.7675 4.44054 19.8333 4.66666 19.8335H23.3333C23.5594 19.8336 23.7807 19.768 23.9702 19.6446C24.1597 19.5213 24.3092 19.3455 24.4007 19.1388C24.4922 18.932 24.5216 18.7031 24.4853 18.4799C24.4491 18.2567 24.3488 18.0489 24.1967 17.8817C22.645 16.2822 21 14.5823 21 9.3335C21 7.47698 20.2625 5.6965 18.9497 4.38375C17.637 3.07099 15.8565 2.3335 14 2.3335C12.1435 2.3335 10.363 3.07099 9.05025 4.38375C7.73749 5.6965 7 7.47698 7 9.3335C7 14.5823 5.35383 16.2822 3.80566 17.8805Z" stroke="#333333" stroke-width="2" stroke-linecap="round" stroke-linejoin="round"/>
</svg>
