<svg width="28" height="28" viewBox="0 0 28 28" fill="none" xmlns="http://www.w3.org/2000/svg">
<path d="M7.00001 25.6668C6.38117 25.6668 5.78767 25.421 5.35009 24.9834C4.9125 24.5458 4.66667 23.9523 4.66667 23.3335V4.66683C4.66667 4.04799 4.9125 3.4545 5.35009 3.01692C5.78767 2.57933 6.38117 2.3335 7.00001 2.3335H16.3333C16.7027 2.3329 17.0684 2.40537 17.4096 2.54673C17.7508 2.68809 18.0607 2.89555 18.3213 3.15717L22.5073 7.34317C22.7697 7.60392 22.9777 7.91407 23.1195 8.25569C23.2613 8.59731 23.3339 8.96363 23.3333 9.3335V23.3335C23.3333 23.9523 23.0875 24.5458 22.6499 24.9834C22.2123 25.421 21.6188 25.6668 21 25.6668H7.00001Z" stroke="#333333" stroke-width="2" stroke-linecap="round" stroke-linejoin="round"/>
<path d="M16.3333 2.3335V8.16683C16.3333 8.47625 16.4563 8.77299 16.6751 8.99179C16.8938 9.21058 17.1906 9.3335 17.5 9.3335H23.3333M11.6667 10.5002H9.33334M18.6667 15.1668H9.33334M18.6667 19.8335H9.33334" stroke="#333333" stroke-width="2" stroke-linecap="round" stroke-linejoin="round"/>
</svg>
