<svg width="28" height="28" viewBox="0 0 28 28" fill="none" xmlns="http://www.w3.org/2000/svg">
<path d="M3.5 12.8335H7C7.61884 12.8335 8.21233 13.0793 8.64992 13.5169C9.0875 13.9545 9.33333 14.548 9.33333 15.1668V18.6668C9.33333 19.2857 9.0875 19.8792 8.64992 20.3167C8.21233 20.7543 7.61884 21.0002 7 21.0002H5.83333C5.21449 21.0002 4.621 20.7543 4.18342 20.3167C3.74583 19.8792 3.5 19.2857 3.5 18.6668V12.8335ZM3.5 12.8335C3.5 11.4546 3.77159 10.0892 4.29926 8.81532C4.82694 7.5414 5.60036 6.38389 6.57538 5.40887C7.55039 4.43386 8.70791 3.66044 9.98182 3.13276C11.2557 2.60509 12.6211 2.3335 14 2.3335C15.3789 2.3335 16.7443 2.60509 18.0182 3.13276C19.2921 3.66044 20.4496 4.43386 21.4246 5.40887C22.3996 6.38389 23.1731 7.5414 23.7007 8.81532C24.2284 10.0892 24.5 11.4546 24.5 12.8335M24.5 12.8335V18.6668C24.5 19.2857 24.2542 19.8792 23.8166 20.3167C23.379 20.7543 22.7855 21.0002 22.1667 21.0002H21C20.3812 21.0002 19.7877 20.7543 19.3501 20.3167C18.9125 19.8792 18.6667 19.2857 18.6667 18.6668V15.1668C18.6667 14.548 18.9125 13.9545 19.3501 13.5169C19.7877 13.0793 20.3812 12.8335 21 12.8335H24.5Z" stroke="#333333" stroke-width="2" stroke-linecap="round" stroke-linejoin="round"/>
<path d="M24.5 18.667V21.0003C24.5 22.238 24.0083 23.425 23.1332 24.3002C22.258 25.1753 21.071 25.667 19.8333 25.667H14" stroke="#333333" stroke-width="2" stroke-linecap="round" stroke-linejoin="round"/>
</svg>
