<svg width="28" height="28" viewBox="0 0 28 28" fill="none" xmlns="http://www.w3.org/2000/svg">
<path d="M23.3333 15.1669C23.3333 21.0002 19.25 23.9169 14.3967 25.6085C14.1425 25.6947 13.8665 25.6905 13.615 25.5969C8.75 23.9169 4.66667 21.0002 4.66667 15.1669V7.0002C4.66667 6.69078 4.78959 6.39403 5.00838 6.17524C5.22717 5.95645 5.52392 5.83353 5.83334 5.83353C8.16667 5.83353 11.0833 4.43353 13.1133 2.6602C13.3605 2.44903 13.6749 2.33301 14 2.33301C14.3251 2.33301 14.6395 2.44903 14.8867 2.6602C16.9283 4.4452 19.8333 5.83353 22.1667 5.83353C22.4761 5.83353 22.7728 5.95645 22.9916 6.17524C23.2104 6.39403 23.3333 6.69078 23.3333 7.0002V15.1669Z" stroke="#333333" stroke-width="2" stroke-linecap="round" stroke-linejoin="round"/>
<path d="M7.43867 22.0618C7.93651 20.7226 8.83216 19.5679 10.0054 18.7526C11.1786 17.9374 12.5731 17.5006 14.0018 17.501C15.4305 17.5014 16.8248 17.9389 17.9976 18.7548C19.1704 19.5707 20.0654 20.7259 20.5625 22.0653" stroke="#333333" stroke-width="2" stroke-linecap="round" stroke-linejoin="round"/>
<path d="M14 17.5003C16.5773 17.5003 18.6667 15.411 18.6667 12.8337C18.6667 10.2563 16.5773 8.16699 14 8.16699C11.4227 8.16699 9.33334 10.2563 9.33334 12.8337C9.33334 15.411 11.4227 17.5003 14 17.5003Z" stroke="#333333" stroke-width="2" stroke-linecap="round" stroke-linejoin="round"/>
</svg>
