<svg width="28" height="28" viewBox="0 0 28 28" fill="none" xmlns="http://www.w3.org/2000/svg">
<path d="M21 24.4998C21 22.0245 20.0167 19.6505 18.2663 17.9002C16.516 16.1498 14.142 15.1665 11.6667 15.1665C9.19131 15.1665 6.81734 16.1498 5.067 17.9002C3.31666 19.6505 2.33333 22.0245 2.33333 24.4998" stroke="#333333" stroke-width="2" stroke-linecap="round" stroke-linejoin="round"/>
<path d="M11.6667 15.1667C14.8883 15.1667 17.5 12.555 17.5 9.33333C17.5 6.11167 14.8883 3.5 11.6667 3.5C8.445 3.5 5.83333 6.11167 5.83333 9.33333C5.83333 12.555 8.445 15.1667 11.6667 15.1667Z" stroke="#333333" stroke-width="2" stroke-linecap="round" stroke-linejoin="round"/>
<path d="M25.6667 23.3336C25.6667 19.4019 23.3333 15.7502 21 14.0002C21.767 13.4248 22.3803 12.6692 22.7857 11.8002C23.191 10.9313 23.3759 9.97577 23.324 9.01833C23.2721 8.06088 22.985 7.131 22.488 6.31096C21.9911 5.49093 21.2997 4.80603 20.475 4.31689" stroke="#333333" stroke-width="2" stroke-linecap="round" stroke-linejoin="round"/>
</svg>
